<?xml version="1.0" encoding="utf-8"?>
<svg xmlns="http://www.w3.org/2000/svg" xmlns:xlink="http://www.w3.org/1999/xlink" style="margin: auto; background: rgb(241, 242, 243); display: block; shape-rendering: auto;" width="200px" height="200px" viewBox="0 0 100 100" preserveAspectRatio="xMidYMid">
<g transform="translate(50 50)">
<g transform="rotate(40.3789)">
<animateTransform attributeName="transform" type="rotate" values="0;45" keyTimes="0;1" dur="0.3184713375796179s" repeatCount="indefinite"></animateTransform><path d="M34.18698582794336 -7.5 L47.18698582794336 -7.5 L47.18698582794336 7.5 L34.18698582794336 7.5 A35 35 0 0 1 29.477150366166253 18.87054864836804 L29.477150366166253 18.87054864836804 L38.66953852159137 28.062936803793157 L28.062936803793164 38.66953852159136 L18.870548648368043 29.47715036616625 A35 35 0 0 1 7.499999999999998 34.18698582794336 L7.499999999999998 34.18698582794336 L7.499999999999999 47.18698582794336 L-7.499999999999994 47.18698582794336 L-7.499999999999995 34.18698582794336 A35 35 0 0 1 -18.870548648368032 29.477150366166256 L-18.870548648368032 29.477150366166256 L-28.06293680379315 38.66953852159138 L-38.66953852159137 28.062936803793157 L-29.477150366166253 18.87054864836804 A35 35 0 0 1 -34.18698582794336 7.500000000000008 L-34.18698582794336 7.500000000000008 L-47.18698582794336 7.50000000000001 L-47.18698582794336 -7.499999999999998 L-34.18698582794336 -7.5 A35 35 0 0 1 -29.477150366166256 -18.870548648368032 L-29.477150366166256 -18.870548648368032 L-38.66953852159138 -28.06293680379315 L-28.062936803793157 -38.66953852159137 L-18.87054864836804 -29.477150366166253 A35 35 0 0 1 -7.500000000000011 -34.18698582794336 L-7.500000000000011 -34.18698582794336 L-7.500000000000013 -47.18698582794336 L7.499999999999995 -47.18698582794336 L7.499999999999997 -34.18698582794336 A35 35 0 0 1 18.87054864836803 -29.477150366166256 L18.87054864836803 -29.477150366166256 L28.062936803793143 -38.66953852159138 L38.66953852159136 -28.062936803793164 L29.47715036616625 -18.870548648368043 A35 35 0 0 1 34.18698582794336 -7.500000000000012 M0 -18A18 18 0 1 0 0 18 A18 18 0 1 0 0 -18" fill="#162f55"></path></g></g>
<!-- [ldio] generated by https://loading.io/ --></svg>